<svg version="1.1" viewBox="0.0 0.0 960.0 960.0" fill="none" stroke="none" stroke-linecap="square" stroke-miterlimit="10" xmlns:xlink="http://www.w3.org/1999/xlink" xmlns="http://www.w3.org/2000/svg"><clipPath id="p.0"><path d="m0 0l960.0 0l0 960.0l-960.0 0l0 -960.0z" clip-rule="nonzero"/></clipPath><g clip-path="url(#p.0)"><path fill="#000000" fill-opacity="0.0" d="m0 0l960.0 0l0 960.0l-960.0 0z" fill-rule="evenodd"/><path fill="#000000" d="m0 0l960.0 0l0 972.0l-960.0 0z" fill-rule="evenodd"/><path fill="#ffffff" d="m216.0 749.99835l0 -526.9291l528.0 526.9291z" fill-rule="evenodd"/><path fill="#ffffff" d="m291.7638 408.33334l186.67715 -186.33072l0 372.66144z" fill-rule="evenodd"/><path fill="#ffffff" d="m555.26196 671.31976l-186.67715 -186.33072l373.35434 0z" fill-rule="evenodd"/><path fill="#000000" d="m291.7533 506.8013l-29.039398 7.259857l0 80.58264l29.039398 -7.2598267z" fill-rule="evenodd"/><path fill="#000000" d="m368.5853 700.30865l7.2519836 -29.007874l80.74802 0l-7.251953 29.007874z" fill-rule="evenodd"/></g></svg>